<svg t="1607907291499" class="icon" viewBox="0 0 2340 1024" version="1.1" xmlns="http://www.w3.org/2000/svg" p-id="17362" width="200" height="200"><path d="M512 0h1316.571429a512 512 0 0 1 512 512 512 512 0 0 1-512 512H512a512 512 0 0 1-512-512 512 512 0 0 1 512-512z" fill="#FF4C4C" p-id="17363"></path><path d="M906.971429 804.571429H804.571429V585.142857H590.994286v219.428572H486.4V284.525714h104.594286v223.817143H804.571429V284.525714h102.4zM1423.36 590.994286a219.428571 219.428571 0 0 1-60.708571 158.72 209.188571 209.188571 0 0 1-157.257143 62.171428 206.994286 206.994286 0 0 1-156.525715-62.171428 219.428571 219.428571 0 0 1-59.977142-157.988572V498.102857a219.428571 219.428571 0 0 1 59.977142-157.988571 206.262857 206.262857 0 0 1 155.794286-62.902857 209.92 209.92 0 0 1 157.257143 62.902857 219.428571 219.428571 0 0 1 60.708571 157.988571zM1316.571429 497.371429a157.257143 157.257143 0 0 0-30.72-99.474286 100.205714 100.205714 0 0 0-84.114286-38.765714 97.28 97.28 0 0 0-82.651429 38.765714A160.182857 160.182857 0 0 0 1097.142857 497.371429v93.622857a161.645714 161.645714 0 0 0 29.988572 100.937143 98.011429 98.011429 0 0 0 82.651428 38.765714 99.474286 99.474286 0 0 0 83.382857-38.765714A160.182857 160.182857 0 0 0 1316.571429 590.994286zM1858.56 365.714286h-146.285714v438.857143H1609.142857V365.714286h-146.285714V284.525714h399.36z" fill="#FFFFFF" p-id="17364"></path></svg>