<svg t="1611298674539" class="icon" viewBox="0 0 1024 1024" version="1.1" xmlns="http://www.w3.org/2000/svg" p-id="32539" width="200" height="200"><path d="M914.285714 0h-804.571428A109.714286 109.714286 0 0 0 0 109.714286v643.169524a109.714286 109.714286 0 0 0 109.714286 109.714285h105.813333l-43.154286 129.219048a24.380952 24.380952 0 0 0 35.596191 28.525714l263.314286-157.744762H914.285714a109.714286 109.714286 0 0 0 109.714286-109.714285V109.714286A109.714286 109.714286 0 0 0 914.285714 0zM436.662857 626.590476a763.367619 763.367619 0 0 1 17.798095-133.12l1.219048-6.582857 1.950476-9.752381h-142.384762l-7.801904 39.984762-26.819048 138.971429h-97.52381L268.190476 207.481905h98.986667L341.333333 346.940952l-10.483809 52.906667h142.140952l9.264762-48.761905 27.062857-143.36h98.986667s-19.748571 99.230476-25.84381 127.268572l-22.918095 109.714285a1072.761905 1072.761905 0 0 0-26.087619 187.489524A117.76 117.76 0 0 0 536.380952 658.285714a103.862857 103.862857 0 0 1-47.299047 10.971429 57.051429 57.051429 0 0 1-40.96-10.971429 44.373333 44.373333 0 0 1-11.459048-31.695238z m204.312381-14.872381a57.782857 57.782857 0 1 1 57.782857 57.782857 57.782857 57.782857 0 0 1-57.782857-57.782857zM828.952381 243.809524c-15.11619 39.009524-60.952381 270.384762-60.952381 270.384762h-96.792381l24.380952-131.900953a819.2 819.2 0 0 1 33.401905-133.12 70.704762 70.704762 0 0 1 24.380953-30.963809 75.824762 75.824762 0 0 1 45.104761-11.946667A79.969524 79.969524 0 0 1 841.142857 219.428571a158.96381 158.96381 0 0 0-12.190476 24.380953z" p-id="32540" fill="#d81e06"></path></svg>